<?xml version="1.0" standalone="no"?>
<!DOCTYPE svg PUBLIC "-//W3C//DTD SVG 20010904//EN"
 "http://www.w3.org/TR/2001/REC-SVG-20010904/DTD/svg10.dtd">
<svg version="1.0" xmlns="http://www.w3.org/2000/svg"
 width="691.000000pt" height="111.000000pt" viewBox="0 0 691.000000 111.000000"
 preserveAspectRatio="xMidYMid meet">

<g transform="translate(0.000000,111.000000) scale(0.100000,-0.100000)"
fill="#000000" stroke="none">
<path d="M2017 1063 c-4 -3 -7 -233 -7 -510 l0 -503 2420 0 2420 0 0 510 0
510 -2413 0 c-1328 0 -2417 -3 -2420 -7z m515 -156 c60 -25 106 -74 123 -130
8 -28 15 -52 15 -54 0 -2 -35 -3 -79 -3 -78 0 -79 0 -91 30 -16 39 -41 52
-101 53 -61 1 -89 -22 -89 -71 0 -54 29 -77 153 -118 86 -29 120 -45 153 -76
99 -92 70 -252 -59 -321 -35 -18 -58 -22 -142 -22 -114 0 -158 16 -213 79 -26
30 -52 89 -52 119 0 4 36 7 80 7 66 0 80 -3 80 -16 0 -8 13 -29 29 -45 25 -24
38 -29 80 -29 75 0 106 33 102 107 -1 27 -55 63 -121 82 -161 47 -222 91 -240
174 -9 39 -9 63 -1 95 12 44 58 104 95 124 68 37 207 45 278 15z m1490 -7 c79
-29 150 -96 190 -178 30 -61 33 -74 33 -162 0 -86 -3 -101 -31 -160 -49 -101
-115 -160 -215 -191 -186 -58 -376 23 -455 193 -26 56 -29 74 -29 158 0 82 4
103 27 152 84 180 288 260 480 188z m-1072 -130 l0 -150 155 0 155 0 0 150 0
150 70 0 70 0 0 -365 0 -365 -70 0 -70 0 0 155 0 155 -155 0 -154 0 -3 -152
-3 -153 -70 0 -70 0 -3 363 -2 362 75 0 75 0 0 -150z m1805 126 c168 -73 181
-307 22 -387 -23 -12 -43 -23 -45 -24 -1 -1 33 -63 78 -138 44 -75 80 -141 80
-146 0 -7 -30 -11 -78 -11 l-78 0 -81 143 c-79 139 -81 142 -114 142 l-34 0
-3 -142 -3 -143 -69 0 -70 0 0 366 0 366 178 -4 c139 -3 186 -8 217 -22z m763
-38 l3 -58 -101 0 -100 0 0 -305 0 -305 -70 0 -70 0 0 305 0 305 -100 0 -100
0 0 53 c0 30 3 57 7 60 4 4 124 6 267 5 l261 -3 3 -57z m522 2 l0 -60 -135 0
-135 0 0 -90 0 -90 120 0 121 0 -3 -57 -3 -58 -117 -3 -118 -3 0 -94 0 -95
135 0 135 0 0 -60 0 -60 -210 0 -210 0 0 365 0 365 210 0 210 0 0 -60z m495
45 c111 -29 164 -96 165 -208 0 -90 -39 -151 -122 -193 l-37 -19 81 -135 c44
-74 82 -141 85 -148 4 -10 -13 -12 -78 -10 l-84 3 -80 142 c-77 137 -81 142
-112 143 l-32 0 -3 -142 -3 -143 -70 0 -70 0 -3 363 -2 362 153 0 c105 0 171
-5 212 -15z"/>
<path d="M3823 791 c-102 -26 -163 -111 -163 -229 0 -145 87 -241 218 -242 90
0 154 37 195 115 17 32 22 57 22 126 0 78 -3 90 -30 135 -19 29 -47 58 -70 71
-45 25 -125 36 -172 24z"/>
<path d="M4507 793 c-4 -3 -7 -51 -7 -105 l0 -98 91 0 c87 0 92 1 120 29 54
54 32 151 -39 170 -41 12 -155 15 -165 4z"/>
<path d="M6320 695 l0 -105 81 0 c116 0 148 22 149 100 0 82 -42 110 -167 110
l-63 0 0 -105z"/>
<path d="M192 653 c3 -266 3 -268 30 -325 46 -99 137 -145 267 -136 136 10
221 87 242 219 5 35 8 163 7 284 l-3 220 -47 3 -47 3 -3 -275 c-3 -312 -3
-309 -89 -354 -36 -19 -54 -23 -103 -19 -62 6 -95 23 -130 71 -20 26 -21 45
-26 299 l-5 272 -48 3 -48 3 3 -268z"/>
<path d="M898 914 c-5 -4 -8 -166 -8 -361 l0 -353 50 0 50 0 0 145 0 145 58 0
57 -1 83 -143 82 -144 51 -4 c28 -1 52 0 54 3 2 3 -34 70 -81 149 -47 80 -81
146 -75 148 140 47 199 191 128 317 -16 29 -38 48 -81 69 -55 29 -65 30 -209
34 -84 2 -155 1 -159 -4z m307 -88 c71 -30 97 -130 52 -197 -32 -47 -64 -60
-173 -66 l-94 -6 0 142 0 141 90 0 c56 0 104 -5 125 -14z"/>
<path d="M1527 913 c-4 -3 -7 -165 -7 -360 l0 -353 175 0 175 0 0 35 0 35
-125 0 -125 0 0 325 0 325 -43 0 c-24 0 -47 -3 -50 -7z"/>
</g>
</svg>
